<svg xmlns="http://www.w3.org/2000/svg" version="1.1" xmlns:xlink="http://www.w3.org/1999/xlink" width="110" height="135"><svg xmlns="http://www.w3.org/2000/svg" version="1.1" viewBox="-5.0 -10.0 110.0 135.0">
 <path d="m53.594 41.402c-0.39453-7.8242-0.79297-15.816-1.1953-23.809l-0.32031 0.015625c0.42188 9.1641 0.84766 18.332 1.2734 27.5h0.375v-1.6367l0.22266-0.015625c0.070312 0.33203 0.14062 0.66797 0.23828 1.0977 0.17578-0.10938 0.34375-0.23047 0.49609-0.37109 4.8008-5.3672 9.5938-10.738 14.383-16.113 1.8008-2.0352 3.4922-4.168 5.2812-6.2188 0.78906-0.90234 1.6797-1.7305 3.0234-1.9922 0.023437 0.26953 0.039062 0.48828 0.058594 0.69922 0.67969 0.085937 1.3047-1.3516 2.0117 0.03125 1.0234-0.91406 1.3359 0.70312 2.2578 0.61328-0.10547 0.45312-0.21094 0.88672-0.3125 1.3203l0.125 0.097656 0.55469-0.59375 0.15234 0.054687c-0.20703 0.46484-0.33594 0.99219-0.64062 1.3789-0.95703 1.207-1.9727 2.375-2.9844 3.5352-3.332 3.8164-6.6602 7.6406-10.02 11.438-3.5625 4.0195-7.1562 8.0039-10.734 12.008l-0.003906 0.003906c-0.058594 0.09375-0.10547 0.19531-0.14453 0.30078 0.32812 0.03125 0.60547 0.070312 0.88672 0.078125 9.7031 0.26953 19.406 0.53516 29.109 0.80469 1.9453 0.054688 3.8906 0.11328 5.832 0.26172 0.68359 0.050781 1.3438 0.37109 2.0078 0.56641-0.16016 2.375-2.1836 2.3867-3.5859 2.9062-1.2344 0.46094-2.6719 0.51953-4.0195 0.50781-5.1328-0.039063-10.262-0.21484-15.395-0.26562-4.3945-0.046875-8.7812 0.007812-13.172 0.023437-0.26562 0-0.52734 0.054688-0.99609 0.10547 0.94922 1.0156 1.75 1.9023 2.5781 2.7578 3.2891 3.3984 6.5117 6.8672 9.9102 10.156 2.4375 2.3594 5.1406 4.4453 7.6758 6.707 1.543 1.375 3.0391 2.8086 4.4414 4.3242 0.51172 0.55078 1.0078 1.3359 0.15234 2.1953-0.23828 0.23828-0.035157 0.92578-0.035157 1.4531h-0.58984c0.011718 0.089844 0.035156 0.17188 0.066406 0.25391 0.13281 0.23828 0.39844 0.47656 0.39453 0.70703 0 0.35547-0.10547 0.78125-0.33203 1.0234-0.11719 0.13281-0.64062 0.050781-0.87891-0.10156-0.41406-0.25781-0.73047-0.66016-1.1211-0.96484-0.28906-0.19922-0.58984-0.38281-0.90625-0.54688l-0.19531 0.23828 2.3633 2.0938c-0.58594 0.61328-1.2188 0.84766-1.9805 0.43359-0.375-0.20703-0.78516-0.42188-1.0547-0.74219-1.8633-2.2109-4.2773-3.8281-6.3125-5.8281-5.582-5.4727-11.035-11.074-16.531-16.629-0.31641-0.31641-0.55078-0.71094-0.82422-1.0703l-0.32422 0.21094c0 0.28906-0.007813 0.58203 0 0.875 0.17188 5.3438 0.30469 10.691 0.53516 16.035 0.12891 2.9688 0.4375 5.918 0.63281 8.8789 0.054687 0.80469 0.007812 1.6211 0.007812 2.6328l-0.77734-0.52344c-0.027344 0.035156-0.0625 0.078124-0.09375 0.11719-0.26562 0.35547-0.53906 0.71094-0.78906 1.0859-0.10938 0.16797-0.12891 0.39453-0.24609 0.55078-0.21094 0.28906-0.46875 0.54688-0.70312 0.82031-0.15234-0.26953-0.32812-0.52734-0.45312-0.80469-0.14062-0.30859-0.23828-0.64062-0.34766-0.96094l-0.21484 0.0625c0.046875 0.38672 0.066406 0.77734 0.066406 1.168-0.011718 0.22266-0.14844 0.4375-0.23047 0.65625-0.27344-0.10547-0.65234-0.13281-0.79297-0.33203-0.19922-0.27734-0.28125-0.67969-0.31641-1.0391-0.64062-6.2109-1.2773-12.422-1.8828-18.637-0.34766-3.5625-0.62891-7.1406-0.94141-10.715-0.027344-0.29688-0.078125-0.59375-0.11719-0.92188-0.93359 0.89062-1.8125 1.6914-2.6523 2.5352-2.2656 2.2773-4.5 4.582-6.7695 6.8516-1.7227 1.7266-3.4297 3.4727-5.2305 5.1172-2.9375 2.6797-5.9375 5.2852-8.9219 7.918-1.0273-0.015625-1.2969 1.543-2.4844 1.2031-0.058593 0.23828-0.11719 0.46484-0.22656 0.90625-0.96875 0.45312-2.1953 1.0078-3.4023 1.6055-0.69141 0.34375-1.1875 0.40234-1.1875-0.39063l-1.1836 0.125c-0.023437-0.43359-0.16016-0.90234-0.035156-1.2852 0.12891-0.38281 0.49609-0.69141 0.80469-0.98828 1.7461-1.6875 3.5234-3.3438 5.2578-5.043 1.3906-1.3594 2.7578-2.7461 4.1016-4.1562 1.8672-1.9727 3.7148-3.9609 5.5391-5.9727 3.7422-4.1406 7.4727-8.3047 11.188-12.488 0.21875-0.24219 0.42188-0.5 0.76172-0.90234-0.83203 0-1.4609-0.042969-2.0859 0.007813-10.711 0.86328-21.445 0.63672-32.172 0.72266-1.2969 0.007812-2.6289-0.31641-3.8945-0.67188-1.0859-0.30469-1.3945-1.2617-0.89453-2.2188 0.09375-0.17969 0.26172-0.42188 0.42578-0.45312 1.2109-0.22266 2.4258-0.45703 3.6523-0.57812 0.94922-0.09375 1.9062 0.023437 2.8516-0.035157 6.5078-0.41406 13.016-0.88672 19.527-1.2695 4.1953-0.24609 8.3984-0.36719 12.602-0.54688 0.30078-0.011718 0.60156-0.039062 1.0273-0.066406-0.15234-0.26172-0.22266-0.45312-0.35156-0.59375-3.3906-3.7188-6.793-7.4258-10.199-11.133-2.1875-2.3906-4.2773-4.8711-6.5469-7.1797-2.4375-2.4766-5.0078-4.8242-7.5742-7.1719-0.55469-0.50781-1.3711-0.71094-1.9883-1.1641-0.34766-0.25391-0.72266-0.70703-0.75781-1.1016-0.09375-0.97266 0.28906-1.1719 1.1719-0.75781 0.51953-0.77344 1.7539-1.0859 3.0586-0.61328 2.1367 0.77734 4.1953 1.75 5.9102 3.2852 0.61719 0.55078 1.0977 1.25 1.6406 1.8828 0.32812 0.14453 0.78906 0.23828 1.0938 0.5 1.8164 1.5859 3.5859 3.2227 5.3984 4.8164 0.52734 0.46484 1.1719 0.79688 1.6914 1.2695 0.28906 0.26172 0.38672 0.72266 0.64062 1.0352 0.25391 0.31641 0.5625 0.75391 0.92188 0.85547 1.2578 0.35547 2.0078 1.4375 2.4375 2.3594 0.41016 0.87891 0.97656 1.418 1.6445 1.9922-0.10156-0.19531-0.20703-0.38672-0.30859-0.58203l0.14062-0.10156c1.2383 1.3047 2.4766 2.6133 3.8906 4.1055 0-0.75391 0.023437-1.25 0-1.7422-0.20703-3.7305-0.52734-7.457-0.60938-11.191-0.13281-5.9805-0.13672-11.969-0.11719-17.953 0-1.2188 0.27734-2.457 0.5625-3.6523 0.125-0.52344 0.58594-0.96875 0.89453-1.4492l0.35547 0.16016-0.22266 2.0938 0.21484 0.046875c0.16797-0.47656 0.32031-0.96484 0.51562-1.4336h-0.003906c0.13672-0.28516 0.29688-0.5625 0.47266-0.83203l0.60938 0.72266c0.089844-0.15625 0.20312-0.35547 0.33594-0.59375 1.0469 0.34375 1.8477 0.87891 1.9766 2.0469 0.41016 3.6211 0.92578 7.2305 1.1797 10.859 0.34766 4.9297 0.52344 9.8711 0.71094 14.809 0.085937 2.2227 0.015625 4.4531 0.015625 6.5273zm-5.0664 3.7266 0.4375-0.03125c-0.015625-0.35547-0.03125-0.72266-0.046875-1.082-0.27734-5.2383-0.58203-10.48-0.82031-15.719-0.11719-2.6445-0.097656-5.2969-0.19141-7.9453-0.03125-0.89844-0.22266-1.793-0.33984-2.6875l-0.41406 0.046876c-0.18359 9.168 0.58203 18.293 1.375 27.414zm6.3242 14.719c0.32422 1.4141 19.988 20.551 22.477 21.598-5.0938-4.375-9.918-9.0273-14.551-13.887-2.5703-2.6953-5.3359-5.1992-7.9258-7.7109zm-2.8984-23.824 0.30078-0.035157-0.71875-17.414-0.28125 0.011719c0.23047 5.8125 0.46484 11.625 0.69922 17.438zm5.7734 19.684-0.26562 0.24609 11.578 11.812 0.19531-0.19141zm-7.1172 17.555 0.29688-0.007813c-0.31641-4.5312-0.63281-9.0625-0.94922-13.594l-0.37109 0.027344zm-0.94922-54.559-0.26953 0.007813c0.125 4.8984 0.24609 9.7969 0.36719 14.695l0.30469-0.007812c-0.13281-4.8945-0.26953-9.793-0.40234-14.691zm12.484 43.34 0.17188-0.19141-5.7656-6.0586-0.20312 0.19922zm-21.785-18.797c-0.51172 0.80469-0.074219 1.5234 1.3242 2.293 0.33594-1.2266-0.875-1.4883-1.3242-2.293zm33.609 29.184 0.17578-0.1875-4.4688-4.1172c-0.054687 0.058594-0.10938 0.11719-0.16406 0.17188 1.4883 1.3789 2.9727 2.7539 4.457 4.1328zm-15.691-12.488-0.1875 0.17188-3.2227-3.4922-0.22656 0.21484zm0.21094 0.85156-0.082031 0.074219 2.4805 2.6328 0.29297-0.28125zm-6.1602-18.293 0.24219-0.015625c-0.089843-1.5-0.17969-3-0.24219-4.0977zm24.801 32.273-0.16016 0.20312 2.293 1.8203 0.14453-0.18359z"></path>
<text x="0.0" y="117.5" font-size="5.0" font-weight="bold" font-family="Arbeit Regular, Helvetica, Arial-Unicode, Arial, Sans-serif" fill="#000000">Created by Salsabila Hanuna</text><text x="0.0" y="122.5" font-size="5.0" font-weight="bold" font-family="Arbeit Regular, Helvetica, Arial-Unicode, Arial, Sans-serif" fill="#000000">from Noun Project</text></svg><style>@media (prefers-color-scheme: light) { :root { filter: none; } }
@media (prefers-color-scheme: dark) { :root { filter: none; } }
</style></svg>